<mxfile host="app.diagrams.net" agent="Mozilla/5.0 (Windows NT 10.0; Win64; x64) AppleWebKit/537.36 (KHTML, like Gecko) Chrome/140.0.0.0 Safari/537.36" version="28.2.5">
  <diagram name="Page-1" id="fhGC_17fjJqWT-ERIkqv">
    <mxGraphModel dx="1421" dy="469" grid="1" gridSize="10" guides="1" tooltips="1" connect="1" arrows="1" fold="1" page="1" pageScale="1" pageWidth="827" pageHeight="1169" math="0" shadow="0">
      <root>
        <mxCell id="0" />
        <mxCell id="1" parent="0" />
        <mxCell id="gBi_saGejd_bIvLe54uf-1" value="+" style="rounded=0;whiteSpace=wrap;html=1;" vertex="1" parent="1">
          <mxGeometry x="80" y="90" width="50" height="90" as="geometry" />
        </mxCell>
        <mxCell id="gBi_saGejd_bIvLe54uf-3" value="" style="group;rotation=-90;" vertex="1" connectable="0" parent="1">
          <mxGeometry x="300" y="130" width="90" height="70" as="geometry" />
        </mxCell>
        <mxCell id="gBi_saGejd_bIvLe54uf-4" value="" style="rounded=0;whiteSpace=wrap;html=1;rotation=-90;" vertex="1" parent="gBi_saGejd_bIvLe54uf-3">
          <mxGeometry y="-20" width="90" height="50" as="geometry" />
        </mxCell>
        <mxCell id="gBi_saGejd_bIvLe54uf-5" value="" style="group;rotation=-90;" vertex="1" connectable="0" parent="gBi_saGejd_bIvLe54uf-3">
          <mxGeometry x="30" y="-10" width="26" height="20" as="geometry" />
        </mxCell>
        <mxCell id="gBi_saGejd_bIvLe54uf-6" value="" style="endArrow=none;html=1;rounded=0;" edge="1" parent="gBi_saGejd_bIvLe54uf-5">
          <mxGeometry width="50" height="50" relative="1" as="geometry">
            <mxPoint x="13" y="23" as="sourcePoint" />
            <mxPoint x="13" y="-3" as="targetPoint" />
          </mxGeometry>
        </mxCell>
        <mxCell id="gBi_saGejd_bIvLe54uf-7" value="" style="endArrow=none;html=1;rounded=0;" edge="1" parent="gBi_saGejd_bIvLe54uf-5">
          <mxGeometry width="50" height="50" relative="1" as="geometry">
            <mxPoint x="13" y="23" as="sourcePoint" />
            <mxPoint x="3" y="23" as="targetPoint" />
          </mxGeometry>
        </mxCell>
        <mxCell id="gBi_saGejd_bIvLe54uf-8" value="" style="endArrow=none;html=1;rounded=0;" edge="1" parent="gBi_saGejd_bIvLe54uf-5">
          <mxGeometry width="50" height="50" relative="1" as="geometry">
            <mxPoint x="23" y="-3" as="sourcePoint" />
            <mxPoint x="13" y="-3" as="targetPoint" />
          </mxGeometry>
        </mxCell>
        <mxCell id="gBi_saGejd_bIvLe54uf-9" value="" style="endArrow=none;html=1;rounded=0;" edge="1" parent="gBi_saGejd_bIvLe54uf-5">
          <mxGeometry width="50" height="50" relative="1" as="geometry">
            <mxPoint x="13" y="3" as="sourcePoint" />
            <mxPoint x="3" y="13" as="targetPoint" />
            <Array as="points">
              <mxPoint x="13" y="3" />
            </Array>
          </mxGeometry>
        </mxCell>
        <mxCell id="gBi_saGejd_bIvLe54uf-10" value="" style="endArrow=none;html=1;rounded=0;" edge="1" parent="gBi_saGejd_bIvLe54uf-5">
          <mxGeometry width="50" height="50" relative="1" as="geometry">
            <mxPoint x="13" y="3" as="sourcePoint" />
            <mxPoint x="23" y="13" as="targetPoint" />
          </mxGeometry>
        </mxCell>
        <mxCell id="gBi_saGejd_bIvLe54uf-11" value="" style="triangle;whiteSpace=wrap;html=1;rotation=-90;" vertex="1" parent="gBi_saGejd_bIvLe54uf-3">
          <mxGeometry x="35" y="15" width="20" height="50" as="geometry" />
        </mxCell>
        <mxCell id="gBi_saGejd_bIvLe54uf-14" value="" style="endArrow=none;html=1;rounded=0;entryX=0.004;entryY=0.779;entryDx=0;entryDy=0;entryPerimeter=0;" edge="1" parent="1" target="gBi_saGejd_bIvLe54uf-1">
          <mxGeometry width="50" height="50" relative="1" as="geometry">
            <mxPoint x="40" y="160" as="sourcePoint" />
            <mxPoint x="50" y="210" as="targetPoint" />
          </mxGeometry>
        </mxCell>
        <mxCell id="gBi_saGejd_bIvLe54uf-15" value="" style="verticalLabelPosition=bottom;shadow=0;dashed=0;align=center;html=1;verticalAlign=top;shape=mxgraph.electrical.opto_electronics.7_segment_display;pointerEvents=1;" vertex="1" parent="1">
          <mxGeometry x="660" y="40" width="30" height="40" as="geometry" />
        </mxCell>
        <mxCell id="gBi_saGejd_bIvLe54uf-16" value="" style="verticalLabelPosition=bottom;shadow=0;dashed=0;align=center;html=1;verticalAlign=top;shape=mxgraph.electrical.opto_electronics.7_segment_display;pointerEvents=1;" vertex="1" parent="1">
          <mxGeometry x="750" y="40" width="30" height="40" as="geometry" />
        </mxCell>
        <mxCell id="gBi_saGejd_bIvLe54uf-17" value="" style="verticalLabelPosition=bottom;shadow=0;dashed=0;align=center;html=1;verticalAlign=top;shape=mxgraph.electrical.opto_electronics.7_segment_display;pointerEvents=1;" vertex="1" parent="1">
          <mxGeometry x="790" y="40" width="30" height="40" as="geometry" />
        </mxCell>
        <mxCell id="gBi_saGejd_bIvLe54uf-18" value="1" style="text;html=1;align=center;verticalAlign=middle;whiteSpace=wrap;rounded=0;" vertex="1" parent="1">
          <mxGeometry x="20" y="140" width="20" height="30" as="geometry" />
        </mxCell>
        <mxCell id="gBi_saGejd_bIvLe54uf-19" value="" style="endArrow=none;html=1;rounded=0;entryX=0;entryY=0.5;entryDx=0;entryDy=0;exitX=1;exitY=0.5;exitDx=0;exitDy=0;" edge="1" parent="1" source="gBi_saGejd_bIvLe54uf-20" target="gBi_saGejd_bIvLe54uf-11">
          <mxGeometry width="50" height="50" relative="1" as="geometry">
            <mxPoint x="100" y="200" as="sourcePoint" />
            <mxPoint x="150" y="240" as="targetPoint" />
            <Array as="points">
              <mxPoint x="210" y="200" />
              <mxPoint x="345" y="200" />
            </Array>
          </mxGeometry>
        </mxCell>
        <mxCell id="gBi_saGejd_bIvLe54uf-20" value="" style="rounded=0;whiteSpace=wrap;html=1;" vertex="1" parent="1">
          <mxGeometry x="-20" y="190" width="20" height="20" as="geometry" />
        </mxCell>
        <mxCell id="gBi_saGejd_bIvLe54uf-21" value="" style="rounded=0;whiteSpace=wrap;html=1;" vertex="1" parent="1">
          <mxGeometry x="-20" y="60" width="20" height="20" as="geometry" />
        </mxCell>
        <mxCell id="gBi_saGejd_bIvLe54uf-22" value="" style="endArrow=none;html=1;rounded=0;entryX=1;entryY=0.5;entryDx=0;entryDy=0;exitX=1;exitY=0.5;exitDx=0;exitDy=0;" edge="1" parent="1" source="gBi_saGejd_bIvLe54uf-21" target="gBi_saGejd_bIvLe54uf-4">
          <mxGeometry width="50" height="50" relative="1" as="geometry">
            <mxPoint x="210" y="340" as="sourcePoint" />
            <mxPoint x="260" y="290" as="targetPoint" />
            <Array as="points">
              <mxPoint x="345" y="70" />
            </Array>
          </mxGeometry>
        </mxCell>
        <mxCell id="gBi_saGejd_bIvLe54uf-24" value="" style="endArrow=none;html=1;rounded=0;" edge="1" parent="1">
          <mxGeometry width="50" height="50" relative="1" as="geometry">
            <mxPoint x="155" y="154.67" as="sourcePoint" />
            <mxPoint x="165" y="144.67" as="targetPoint" />
          </mxGeometry>
        </mxCell>
        <mxCell id="gBi_saGejd_bIvLe54uf-26" value="" style="endArrow=none;html=1;rounded=0;exitX=0.5;exitY=1;exitDx=0;exitDy=0;" edge="1" parent="1" source="gBi_saGejd_bIvLe54uf-4" target="gBi_saGejd_bIvLe54uf-48">
          <mxGeometry width="50" height="50" relative="1" as="geometry">
            <mxPoint x="570" y="240" as="sourcePoint" />
            <mxPoint x="510" y="135" as="targetPoint" />
          </mxGeometry>
        </mxCell>
        <mxCell id="gBi_saGejd_bIvLe54uf-29" value="" style="endArrow=none;html=1;rounded=0;" edge="1" parent="1">
          <mxGeometry width="50" height="50" relative="1" as="geometry">
            <mxPoint x="400" y="140" as="sourcePoint" />
            <mxPoint x="410" y="130" as="targetPoint" />
          </mxGeometry>
        </mxCell>
        <mxCell id="gBi_saGejd_bIvLe54uf-31" value="24&amp;nbsp;&lt;div&gt;CPT&lt;/div&gt;" style="text;html=1;align=center;verticalAlign=middle;whiteSpace=wrap;rounded=0;" vertex="1" parent="1">
          <mxGeometry x="380" y="140" width="60" height="30" as="geometry" />
        </mxCell>
        <mxCell id="gBi_saGejd_bIvLe54uf-32" value="" style="rounded=0;whiteSpace=wrap;html=1;" vertex="1" parent="1">
          <mxGeometry x="540" y="40" width="30" height="30" as="geometry" />
        </mxCell>
        <mxCell id="gBi_saGejd_bIvLe54uf-33" value="" style="triangle;whiteSpace=wrap;html=1;" vertex="1" parent="1">
          <mxGeometry x="540" y="40" width="30" height="30" as="geometry" />
        </mxCell>
        <mxCell id="gBi_saGejd_bIvLe54uf-44" value="" style="endArrow=none;html=1;rounded=0;entryX=0;entryY=0.5;entryDx=0;entryDy=0;exitX=0;exitY=0.5;exitDx=0;exitDy=0;" edge="1" parent="1" target="gBi_saGejd_bIvLe54uf-33">
          <mxGeometry width="50" height="50" relative="1" as="geometry">
            <mxPoint x="540" y="305" as="sourcePoint" />
            <mxPoint x="450" y="250" as="targetPoint" />
            <Array as="points">
              <mxPoint x="510" y="305" />
              <mxPoint x="510" y="55" />
            </Array>
          </mxGeometry>
        </mxCell>
        <mxCell id="gBi_saGejd_bIvLe54uf-48" value="" style="shape=waypoint;sketch=0;fillStyle=solid;size=6;pointerEvents=1;points=[];fillColor=none;resizable=0;rotatable=0;perimeter=centerPerimeter;snapToPoint=1;" vertex="1" parent="1">
          <mxGeometry x="500" y="125" width="20" height="20" as="geometry" />
        </mxCell>
        <mxCell id="gBi_saGejd_bIvLe54uf-50" value="" style="endArrow=none;html=1;rounded=0;entryX=1;entryY=0.5;entryDx=0;entryDy=0;" edge="1" parent="1" source="gBi_saGejd_bIvLe54uf-51" target="gBi_saGejd_bIvLe54uf-33">
          <mxGeometry width="50" height="50" relative="1" as="geometry">
            <mxPoint x="590" y="55" as="sourcePoint" />
            <mxPoint x="690" y="230" as="targetPoint" />
          </mxGeometry>
        </mxCell>
        <mxCell id="gBi_saGejd_bIvLe54uf-53" value="" style="endArrow=none;html=1;rounded=0;entryX=1;entryY=0.5;entryDx=0;entryDy=0;" edge="1" parent="1" target="gBi_saGejd_bIvLe54uf-51">
          <mxGeometry width="50" height="50" relative="1" as="geometry">
            <mxPoint x="590" y="55" as="sourcePoint" />
            <mxPoint x="570" y="55" as="targetPoint" />
          </mxGeometry>
        </mxCell>
        <mxCell id="gBi_saGejd_bIvLe54uf-51" value="" style="rounded=0;whiteSpace=wrap;html=1;" vertex="1" parent="1">
          <mxGeometry x="600" y="50" width="10" height="10" as="geometry" />
        </mxCell>
        <mxCell id="gBi_saGejd_bIvLe54uf-54" value="" style="endArrow=none;html=1;rounded=0;" edge="1" parent="1">
          <mxGeometry width="50" height="50" relative="1" as="geometry">
            <mxPoint x="580" y="60" as="sourcePoint" />
            <mxPoint x="590" y="50" as="targetPoint" />
          </mxGeometry>
        </mxCell>
        <mxCell id="gBi_saGejd_bIvLe54uf-55" value="8" style="text;html=1;align=center;verticalAlign=middle;whiteSpace=wrap;rounded=0;" vertex="1" parent="1">
          <mxGeometry x="580" y="60" width="10" height="10" as="geometry" />
        </mxCell>
        <mxCell id="gBi_saGejd_bIvLe54uf-56" value="" style="rounded=0;whiteSpace=wrap;html=1;" vertex="1" parent="1">
          <mxGeometry x="540" y="90" width="30" height="30" as="geometry" />
        </mxCell>
        <mxCell id="gBi_saGejd_bIvLe54uf-57" value="" style="triangle;whiteSpace=wrap;html=1;" vertex="1" parent="1">
          <mxGeometry x="540" y="90" width="30" height="30" as="geometry" />
        </mxCell>
        <mxCell id="gBi_saGejd_bIvLe54uf-58" value="" style="endArrow=none;html=1;rounded=0;entryX=1;entryY=0.5;entryDx=0;entryDy=0;" edge="1" parent="1" source="gBi_saGejd_bIvLe54uf-60" target="gBi_saGejd_bIvLe54uf-57">
          <mxGeometry width="50" height="50" relative="1" as="geometry">
            <mxPoint x="590" y="105" as="sourcePoint" />
            <mxPoint x="690" y="280" as="targetPoint" />
          </mxGeometry>
        </mxCell>
        <mxCell id="gBi_saGejd_bIvLe54uf-59" value="" style="endArrow=none;html=1;rounded=0;entryX=1;entryY=0.5;entryDx=0;entryDy=0;" edge="1" parent="1" target="gBi_saGejd_bIvLe54uf-60">
          <mxGeometry width="50" height="50" relative="1" as="geometry">
            <mxPoint x="590" y="105" as="sourcePoint" />
            <mxPoint x="570" y="105" as="targetPoint" />
          </mxGeometry>
        </mxCell>
        <mxCell id="gBi_saGejd_bIvLe54uf-60" value="" style="rounded=0;whiteSpace=wrap;html=1;" vertex="1" parent="1">
          <mxGeometry x="600" y="100" width="10" height="10" as="geometry" />
        </mxCell>
        <mxCell id="gBi_saGejd_bIvLe54uf-61" value="" style="endArrow=none;html=1;rounded=0;" edge="1" parent="1">
          <mxGeometry width="50" height="50" relative="1" as="geometry">
            <mxPoint x="580" y="110" as="sourcePoint" />
            <mxPoint x="590" y="100" as="targetPoint" />
          </mxGeometry>
        </mxCell>
        <mxCell id="gBi_saGejd_bIvLe54uf-62" value="8" style="text;html=1;align=center;verticalAlign=middle;whiteSpace=wrap;rounded=0;" vertex="1" parent="1">
          <mxGeometry x="580" y="110" width="10" height="10" as="geometry" />
        </mxCell>
        <mxCell id="gBi_saGejd_bIvLe54uf-63" value="" style="rounded=0;whiteSpace=wrap;html=1;" vertex="1" parent="1">
          <mxGeometry x="540" y="140" width="30" height="30" as="geometry" />
        </mxCell>
        <mxCell id="gBi_saGejd_bIvLe54uf-64" value="" style="triangle;whiteSpace=wrap;html=1;" vertex="1" parent="1">
          <mxGeometry x="540" y="140" width="30" height="30" as="geometry" />
        </mxCell>
        <mxCell id="gBi_saGejd_bIvLe54uf-65" value="" style="endArrow=none;html=1;rounded=0;entryX=1;entryY=0.5;entryDx=0;entryDy=0;" edge="1" parent="1" source="gBi_saGejd_bIvLe54uf-67" target="gBi_saGejd_bIvLe54uf-64">
          <mxGeometry width="50" height="50" relative="1" as="geometry">
            <mxPoint x="590" y="155" as="sourcePoint" />
            <mxPoint x="690" y="330" as="targetPoint" />
          </mxGeometry>
        </mxCell>
        <mxCell id="gBi_saGejd_bIvLe54uf-66" value="" style="endArrow=none;html=1;rounded=0;entryX=1;entryY=0.5;entryDx=0;entryDy=0;" edge="1" parent="1" target="gBi_saGejd_bIvLe54uf-67">
          <mxGeometry width="50" height="50" relative="1" as="geometry">
            <mxPoint x="590" y="155" as="sourcePoint" />
            <mxPoint x="570" y="155" as="targetPoint" />
          </mxGeometry>
        </mxCell>
        <mxCell id="gBi_saGejd_bIvLe54uf-67" value="" style="rounded=0;whiteSpace=wrap;html=1;" vertex="1" parent="1">
          <mxGeometry x="600" y="150" width="10" height="10" as="geometry" />
        </mxCell>
        <mxCell id="gBi_saGejd_bIvLe54uf-68" value="" style="endArrow=none;html=1;rounded=0;" edge="1" parent="1">
          <mxGeometry width="50" height="50" relative="1" as="geometry">
            <mxPoint x="580" y="160" as="sourcePoint" />
            <mxPoint x="590" y="150" as="targetPoint" />
          </mxGeometry>
        </mxCell>
        <mxCell id="gBi_saGejd_bIvLe54uf-69" value="8" style="text;html=1;align=center;verticalAlign=middle;whiteSpace=wrap;rounded=0;" vertex="1" parent="1">
          <mxGeometry x="580" y="160" width="10" height="10" as="geometry" />
        </mxCell>
        <mxCell id="gBi_saGejd_bIvLe54uf-71" value="" style="rounded=0;whiteSpace=wrap;html=1;" vertex="1" parent="1">
          <mxGeometry x="540" y="190" width="30" height="30" as="geometry" />
        </mxCell>
        <mxCell id="gBi_saGejd_bIvLe54uf-72" value="" style="triangle;whiteSpace=wrap;html=1;" vertex="1" parent="1">
          <mxGeometry x="540" y="190" width="30" height="30" as="geometry" />
        </mxCell>
        <mxCell id="gBi_saGejd_bIvLe54uf-73" value="" style="endArrow=none;html=1;rounded=0;entryX=1;entryY=0.5;entryDx=0;entryDy=0;" edge="1" parent="1" source="gBi_saGejd_bIvLe54uf-75" target="gBi_saGejd_bIvLe54uf-72">
          <mxGeometry width="50" height="50" relative="1" as="geometry">
            <mxPoint x="590" y="205" as="sourcePoint" />
            <mxPoint x="690" y="380" as="targetPoint" />
          </mxGeometry>
        </mxCell>
        <mxCell id="gBi_saGejd_bIvLe54uf-74" value="" style="endArrow=none;html=1;rounded=0;entryX=1;entryY=0.5;entryDx=0;entryDy=0;" edge="1" parent="1" target="gBi_saGejd_bIvLe54uf-75">
          <mxGeometry width="50" height="50" relative="1" as="geometry">
            <mxPoint x="590" y="205" as="sourcePoint" />
            <mxPoint x="570" y="205" as="targetPoint" />
          </mxGeometry>
        </mxCell>
        <mxCell id="gBi_saGejd_bIvLe54uf-75" value="" style="rounded=0;whiteSpace=wrap;html=1;" vertex="1" parent="1">
          <mxGeometry x="600" y="200" width="10" height="10" as="geometry" />
        </mxCell>
        <mxCell id="gBi_saGejd_bIvLe54uf-76" value="" style="endArrow=none;html=1;rounded=0;" edge="1" parent="1">
          <mxGeometry width="50" height="50" relative="1" as="geometry">
            <mxPoint x="580" y="210" as="sourcePoint" />
            <mxPoint x="590" y="200" as="targetPoint" />
          </mxGeometry>
        </mxCell>
        <mxCell id="gBi_saGejd_bIvLe54uf-77" value="8" style="text;html=1;align=center;verticalAlign=middle;whiteSpace=wrap;rounded=0;" vertex="1" parent="1">
          <mxGeometry x="580" y="210" width="10" height="10" as="geometry" />
        </mxCell>
        <mxCell id="gBi_saGejd_bIvLe54uf-78" value="" style="rounded=0;whiteSpace=wrap;html=1;" vertex="1" parent="1">
          <mxGeometry x="540" y="240" width="30" height="30" as="geometry" />
        </mxCell>
        <mxCell id="gBi_saGejd_bIvLe54uf-79" value="" style="triangle;whiteSpace=wrap;html=1;" vertex="1" parent="1">
          <mxGeometry x="540" y="240" width="30" height="30" as="geometry" />
        </mxCell>
        <mxCell id="gBi_saGejd_bIvLe54uf-80" value="" style="endArrow=none;html=1;rounded=0;entryX=1;entryY=0.5;entryDx=0;entryDy=0;" edge="1" parent="1" source="gBi_saGejd_bIvLe54uf-82" target="gBi_saGejd_bIvLe54uf-79">
          <mxGeometry width="50" height="50" relative="1" as="geometry">
            <mxPoint x="590" y="255" as="sourcePoint" />
            <mxPoint x="690" y="430" as="targetPoint" />
          </mxGeometry>
        </mxCell>
        <mxCell id="gBi_saGejd_bIvLe54uf-81" value="" style="endArrow=none;html=1;rounded=0;entryX=1;entryY=0.5;entryDx=0;entryDy=0;" edge="1" parent="1" target="gBi_saGejd_bIvLe54uf-82">
          <mxGeometry width="50" height="50" relative="1" as="geometry">
            <mxPoint x="590" y="255" as="sourcePoint" />
            <mxPoint x="570" y="255" as="targetPoint" />
          </mxGeometry>
        </mxCell>
        <mxCell id="gBi_saGejd_bIvLe54uf-82" value="" style="rounded=0;whiteSpace=wrap;html=1;" vertex="1" parent="1">
          <mxGeometry x="600" y="250" width="10" height="10" as="geometry" />
        </mxCell>
        <mxCell id="gBi_saGejd_bIvLe54uf-83" value="" style="endArrow=none;html=1;rounded=0;" edge="1" parent="1">
          <mxGeometry width="50" height="50" relative="1" as="geometry">
            <mxPoint x="580" y="260" as="sourcePoint" />
            <mxPoint x="590" y="250" as="targetPoint" />
          </mxGeometry>
        </mxCell>
        <mxCell id="gBi_saGejd_bIvLe54uf-84" value="8" style="text;html=1;align=center;verticalAlign=middle;whiteSpace=wrap;rounded=0;" vertex="1" parent="1">
          <mxGeometry x="580" y="260" width="10" height="10" as="geometry" />
        </mxCell>
        <mxCell id="gBi_saGejd_bIvLe54uf-85" value="" style="rounded=0;whiteSpace=wrap;html=1;" vertex="1" parent="1">
          <mxGeometry x="540" y="290" width="30" height="30" as="geometry" />
        </mxCell>
        <mxCell id="gBi_saGejd_bIvLe54uf-86" value="" style="triangle;whiteSpace=wrap;html=1;" vertex="1" parent="1">
          <mxGeometry x="540" y="290" width="30" height="30" as="geometry" />
        </mxCell>
        <mxCell id="gBi_saGejd_bIvLe54uf-87" value="" style="endArrow=none;html=1;rounded=0;entryX=1;entryY=0.5;entryDx=0;entryDy=0;" edge="1" parent="1" source="gBi_saGejd_bIvLe54uf-89" target="gBi_saGejd_bIvLe54uf-86">
          <mxGeometry width="50" height="50" relative="1" as="geometry">
            <mxPoint x="590" y="305" as="sourcePoint" />
            <mxPoint x="690" y="480" as="targetPoint" />
          </mxGeometry>
        </mxCell>
        <mxCell id="gBi_saGejd_bIvLe54uf-88" value="" style="endArrow=none;html=1;rounded=0;entryX=1;entryY=0.5;entryDx=0;entryDy=0;" edge="1" parent="1" target="gBi_saGejd_bIvLe54uf-89">
          <mxGeometry width="50" height="50" relative="1" as="geometry">
            <mxPoint x="590" y="305" as="sourcePoint" />
            <mxPoint x="570" y="305" as="targetPoint" />
          </mxGeometry>
        </mxCell>
        <mxCell id="gBi_saGejd_bIvLe54uf-89" value="" style="rounded=0;whiteSpace=wrap;html=1;" vertex="1" parent="1">
          <mxGeometry x="600" y="300" width="10" height="10" as="geometry" />
        </mxCell>
        <mxCell id="gBi_saGejd_bIvLe54uf-90" value="" style="endArrow=none;html=1;rounded=0;" edge="1" parent="1">
          <mxGeometry width="50" height="50" relative="1" as="geometry">
            <mxPoint x="580" y="310" as="sourcePoint" />
            <mxPoint x="590" y="300" as="targetPoint" />
          </mxGeometry>
        </mxCell>
        <mxCell id="gBi_saGejd_bIvLe54uf-91" value="8" style="text;html=1;align=center;verticalAlign=middle;whiteSpace=wrap;rounded=0;" vertex="1" parent="1">
          <mxGeometry x="580" y="310" width="10" height="10" as="geometry" />
        </mxCell>
        <mxCell id="gBi_saGejd_bIvLe54uf-92" value="" style="endArrow=none;html=1;rounded=0;entryX=0;entryY=0.5;entryDx=0;entryDy=0;" edge="1" parent="1" target="gBi_saGejd_bIvLe54uf-79">
          <mxGeometry width="50" height="50" relative="1" as="geometry">
            <mxPoint x="510" y="255" as="sourcePoint" />
            <mxPoint x="460" y="300" as="targetPoint" />
          </mxGeometry>
        </mxCell>
        <mxCell id="gBi_saGejd_bIvLe54uf-93" value="" style="endArrow=none;html=1;rounded=0;entryX=0;entryY=0.5;entryDx=0;entryDy=0;" edge="1" parent="1">
          <mxGeometry width="50" height="50" relative="1" as="geometry">
            <mxPoint x="510" y="204.67000000000002" as="sourcePoint" />
            <mxPoint x="540" y="204.67000000000002" as="targetPoint" />
          </mxGeometry>
        </mxCell>
        <mxCell id="gBi_saGejd_bIvLe54uf-94" value="" style="endArrow=none;html=1;rounded=0;entryX=0;entryY=0.5;entryDx=0;entryDy=0;" edge="1" parent="1" source="gBi_saGejd_bIvLe54uf-97">
          <mxGeometry width="50" height="50" relative="1" as="geometry">
            <mxPoint x="510" y="154.67000000000002" as="sourcePoint" />
            <mxPoint x="540" y="154.67000000000002" as="targetPoint" />
          </mxGeometry>
        </mxCell>
        <mxCell id="gBi_saGejd_bIvLe54uf-95" value="" style="endArrow=none;html=1;rounded=0;entryX=0;entryY=0.5;entryDx=0;entryDy=0;" edge="1" parent="1" source="gBi_saGejd_bIvLe54uf-100">
          <mxGeometry width="50" height="50" relative="1" as="geometry">
            <mxPoint x="510" y="104.67" as="sourcePoint" />
            <mxPoint x="540" y="104.67" as="targetPoint" />
          </mxGeometry>
        </mxCell>
        <mxCell id="gBi_saGejd_bIvLe54uf-97" value="" style="shape=waypoint;sketch=0;fillStyle=solid;size=6;pointerEvents=1;points=[];fillColor=none;resizable=0;rotatable=0;perimeter=centerPerimeter;snapToPoint=1;" vertex="1" parent="1">
          <mxGeometry x="500" y="144.67000000000007" width="20" height="20" as="geometry" />
        </mxCell>
        <mxCell id="gBi_saGejd_bIvLe54uf-98" value="" style="shape=waypoint;sketch=0;fillStyle=solid;size=6;pointerEvents=1;points=[];fillColor=none;resizable=0;rotatable=0;perimeter=centerPerimeter;snapToPoint=1;" vertex="1" parent="1">
          <mxGeometry x="500" y="195" width="20" height="20" as="geometry" />
        </mxCell>
        <mxCell id="gBi_saGejd_bIvLe54uf-99" value="" style="shape=waypoint;sketch=0;fillStyle=solid;size=6;pointerEvents=1;points=[];fillColor=none;resizable=0;rotatable=0;perimeter=centerPerimeter;snapToPoint=1;" vertex="1" parent="1">
          <mxGeometry x="500" y="245" width="20" height="20" as="geometry" />
        </mxCell>
        <mxCell id="gBi_saGejd_bIvLe54uf-103" value="CK" style="text;html=1;align=center;verticalAlign=middle;whiteSpace=wrap;rounded=0;" vertex="1" parent="1">
          <mxGeometry x="-70" y="185" width="60" height="30" as="geometry" />
        </mxCell>
        <mxCell id="gBi_saGejd_bIvLe54uf-104" value="RST" style="text;html=1;align=center;verticalAlign=middle;whiteSpace=wrap;rounded=0;" vertex="1" parent="1">
          <mxGeometry x="-70" y="55" width="60" height="30" as="geometry" />
        </mxCell>
        <mxCell id="gBi_saGejd_bIvLe54uf-106" value="Hex0" style="text;html=1;align=center;verticalAlign=middle;whiteSpace=wrap;rounded=0;" vertex="1" parent="1">
          <mxGeometry x="610" y="25" width="30" height="30" as="geometry" />
        </mxCell>
        <mxCell id="gBi_saGejd_bIvLe54uf-107" value="Hex1" style="text;html=1;align=center;verticalAlign=middle;whiteSpace=wrap;rounded=0;" vertex="1" parent="1">
          <mxGeometry x="610" y="70" width="30" height="30" as="geometry" />
        </mxCell>
        <mxCell id="gBi_saGejd_bIvLe54uf-108" value="Hex2" style="text;html=1;align=center;verticalAlign=middle;whiteSpace=wrap;rounded=0;" vertex="1" parent="1">
          <mxGeometry x="610" y="125" width="30" height="30" as="geometry" />
        </mxCell>
        <mxCell id="gBi_saGejd_bIvLe54uf-109" value="Hex3" style="text;html=1;align=center;verticalAlign=middle;whiteSpace=wrap;rounded=0;" vertex="1" parent="1">
          <mxGeometry x="610" y="170" width="30" height="30" as="geometry" />
        </mxCell>
        <mxCell id="gBi_saGejd_bIvLe54uf-110" value="Hex4" style="text;html=1;align=center;verticalAlign=middle;whiteSpace=wrap;rounded=0;" vertex="1" parent="1">
          <mxGeometry x="610" y="220" width="30" height="30" as="geometry" />
        </mxCell>
        <mxCell id="gBi_saGejd_bIvLe54uf-111" value="Hex5" style="text;html=1;align=center;verticalAlign=middle;whiteSpace=wrap;rounded=0;" vertex="1" parent="1">
          <mxGeometry x="610" y="270" width="30" height="30" as="geometry" />
        </mxCell>
        <mxCell id="gBi_saGejd_bIvLe54uf-112" value="" style="endArrow=none;html=1;rounded=0;exitX=1;exitY=0.75;exitDx=0;exitDy=0;entryX=0.451;entryY=1.098;entryDx=0;entryDy=0;entryPerimeter=0;" edge="1" parent="1" source="gBi_saGejd_bIvLe54uf-89" target="gBi_saGejd_bIvLe54uf-15">
          <mxGeometry width="50" height="50" relative="1" as="geometry">
            <mxPoint x="720" y="330" as="sourcePoint" />
            <mxPoint x="770" y="280" as="targetPoint" />
            <Array as="points">
              <mxPoint x="674" y="305" />
            </Array>
          </mxGeometry>
        </mxCell>
        <mxCell id="gBi_saGejd_bIvLe54uf-113" value="" style="endArrow=none;html=1;rounded=0;exitX=1;exitY=0.5;exitDx=0;exitDy=0;entryX=0.54;entryY=1.065;entryDx=0;entryDy=0;entryPerimeter=0;" edge="1" parent="1" source="gBi_saGejd_bIvLe54uf-51" target="gBi_saGejd_bIvLe54uf-17">
          <mxGeometry width="50" height="50" relative="1" as="geometry">
            <mxPoint x="710" y="170" as="sourcePoint" />
            <mxPoint x="800" y="100" as="targetPoint" />
            <Array as="points">
              <mxPoint x="650" y="55" />
              <mxPoint x="650" y="100" />
              <mxPoint x="806" y="100" />
            </Array>
          </mxGeometry>
        </mxCell>
        <mxCell id="gBi_saGejd_bIvLe54uf-114" value="" style="endArrow=none;html=1;rounded=0;exitX=1;exitY=0.5;exitDx=0;exitDy=0;entryX=0.418;entryY=1.056;entryDx=0;entryDy=0;entryPerimeter=0;" edge="1" parent="1" source="gBi_saGejd_bIvLe54uf-60" target="gBi_saGejd_bIvLe54uf-16">
          <mxGeometry width="50" height="50" relative="1" as="geometry">
            <mxPoint x="770" y="170" as="sourcePoint" />
            <mxPoint x="820" y="120" as="targetPoint" />
            <Array as="points">
              <mxPoint x="640" y="105" />
              <mxPoint x="640" y="120" />
              <mxPoint x="763" y="120" />
            </Array>
          </mxGeometry>
        </mxCell>
        <mxCell id="gBi_saGejd_bIvLe54uf-115" value="" style="rounded=0;whiteSpace=wrap;html=1;strokeColor=#000000;" vertex="1" parent="1">
          <mxGeometry x="-20" y="240" width="20" height="20" as="geometry" />
        </mxCell>
        <mxCell id="gBi_saGejd_bIvLe54uf-116" value="PAUSE" style="text;html=1;align=center;verticalAlign=middle;whiteSpace=wrap;rounded=0;fontColor=#000000;" vertex="1" parent="1">
          <mxGeometry x="-70" y="235" width="60" height="30" as="geometry" />
        </mxCell>
        <mxCell id="gBi_saGejd_bIvLe54uf-120" value="" style="group" vertex="1" connectable="0" parent="1">
          <mxGeometry x="180" y="90" width="50" height="90" as="geometry" />
        </mxCell>
        <mxCell id="gBi_saGejd_bIvLe54uf-118" value="" style="rounded=0;whiteSpace=wrap;html=1;" vertex="1" parent="gBi_saGejd_bIvLe54uf-120">
          <mxGeometry width="50" height="90" as="geometry" />
        </mxCell>
        <mxCell id="gBi_saGejd_bIvLe54uf-119" value="" style="triangle;whiteSpace=wrap;html=1;" vertex="1" parent="gBi_saGejd_bIvLe54uf-120">
          <mxGeometry width="30" height="90" as="geometry" />
        </mxCell>
        <mxCell id="gBi_saGejd_bIvLe54uf-121" value="1&lt;div&gt;&lt;br&gt;&lt;/div&gt;&lt;div&gt;&lt;br&gt;&lt;/div&gt;&lt;div&gt;&lt;br&gt;&lt;/div&gt;&lt;div&gt;0&lt;/div&gt;" style="text;html=1;align=center;verticalAlign=middle;whiteSpace=wrap;rounded=0;" vertex="1" parent="gBi_saGejd_bIvLe54uf-120">
          <mxGeometry x="30" y="30" width="10" height="30" as="geometry" />
        </mxCell>
        <mxCell id="gBi_saGejd_bIvLe54uf-122" value="" style="endArrow=none;html=1;rounded=0;exitX=1;exitY=0.5;exitDx=0;exitDy=0;entryX=0.5;entryY=1;entryDx=0;entryDy=0;" edge="1" parent="1" source="gBi_saGejd_bIvLe54uf-115" target="gBi_saGejd_bIvLe54uf-118">
          <mxGeometry width="50" height="50" relative="1" as="geometry">
            <mxPoint x="150" y="290" as="sourcePoint" />
            <mxPoint x="200" y="240" as="targetPoint" />
            <Array as="points">
              <mxPoint x="205" y="250" />
            </Array>
          </mxGeometry>
        </mxCell>
        <mxCell id="gBi_saGejd_bIvLe54uf-123" value="" style="endArrow=none;html=1;rounded=0;exitDx=0;exitDy=0;" edge="1" parent="1" source="gBi_saGejd_bIvLe54uf-127">
          <mxGeometry width="50" height="50" relative="1" as="geometry">
            <mxPoint x="220" y="340" as="sourcePoint" />
            <mxPoint x="460" y="135" as="targetPoint" />
            <Array as="points" />
          </mxGeometry>
        </mxCell>
        <mxCell id="gBi_saGejd_bIvLe54uf-124" value="" style="endArrow=none;html=1;rounded=0;" edge="1" parent="1" source="gBi_saGejd_bIvLe54uf-125">
          <mxGeometry width="50" height="50" relative="1" as="geometry">
            <mxPoint x="160" y="80" as="sourcePoint" />
            <mxPoint x="180" y="110" as="targetPoint" />
            <Array as="points">
              <mxPoint x="160" y="110" />
            </Array>
          </mxGeometry>
        </mxCell>
        <mxCell id="gBi_saGejd_bIvLe54uf-125" value="" style="shape=waypoint;sketch=0;fillStyle=solid;size=6;pointerEvents=1;points=[];fillColor=none;resizable=0;rotatable=0;perimeter=centerPerimeter;snapToPoint=1;" vertex="1" parent="1">
          <mxGeometry x="150" y="70" width="20" height="20" as="geometry" />
        </mxCell>
        <mxCell id="gBi_saGejd_bIvLe54uf-126" value="" style="endArrow=none;html=1;rounded=0;exitX=0;exitY=0.25;exitDx=0;exitDy=0;" edge="1" parent="1" source="gBi_saGejd_bIvLe54uf-1" target="gBi_saGejd_bIvLe54uf-127">
          <mxGeometry width="50" height="50" relative="1" as="geometry">
            <mxPoint x="80" y="113" as="sourcePoint" />
            <mxPoint x="460" y="135" as="targetPoint" />
            <Array as="points">
              <mxPoint x="60" y="113" />
              <mxPoint x="60" y="80" />
              <mxPoint x="270" y="80" />
              <mxPoint x="460" y="80" />
            </Array>
          </mxGeometry>
        </mxCell>
        <mxCell id="gBi_saGejd_bIvLe54uf-127" value="" style="shape=waypoint;sketch=0;fillStyle=solid;size=6;pointerEvents=1;points=[];fillColor=none;resizable=0;rotatable=0;perimeter=centerPerimeter;snapToPoint=1;" vertex="1" parent="1">
          <mxGeometry x="450" y="125" width="20" height="20" as="geometry" />
        </mxCell>
        <mxCell id="gBi_saGejd_bIvLe54uf-128" value="" style="endArrow=none;html=1;rounded=0;exitX=1;exitY=0.5;exitDx=0;exitDy=0;" edge="1" parent="1" source="gBi_saGejd_bIvLe54uf-1">
          <mxGeometry width="50" height="50" relative="1" as="geometry">
            <mxPoint x="260" y="390" as="sourcePoint" />
            <mxPoint x="180" y="160" as="targetPoint" />
            <Array as="points">
              <mxPoint x="160" y="135" />
              <mxPoint x="160" y="160" />
            </Array>
          </mxGeometry>
        </mxCell>
        <mxCell id="gBi_saGejd_bIvLe54uf-129" value="ADD" style="text;html=1;align=center;verticalAlign=middle;whiteSpace=wrap;rounded=0;" vertex="1" parent="1">
          <mxGeometry x="140" y="120" width="20" height="10" as="geometry" />
        </mxCell>
        <mxCell id="gBi_saGejd_bIvLe54uf-132" value="24" style="text;html=1;align=center;verticalAlign=middle;whiteSpace=wrap;rounded=0;" vertex="1" parent="1">
          <mxGeometry x="160" y="155" width="10" height="30" as="geometry" />
        </mxCell>
        <mxCell id="gBi_saGejd_bIvLe54uf-133" value="" style="endArrow=none;html=1;rounded=0;entryX=0.625;entryY=0.003;entryDx=0;entryDy=0;entryPerimeter=0;exitX=1.017;exitY=0.381;exitDx=0;exitDy=0;exitPerimeter=0;" edge="1" parent="1" source="gBi_saGejd_bIvLe54uf-118" target="gBi_saGejd_bIvLe54uf-4">
          <mxGeometry width="50" height="50" relative="1" as="geometry">
            <mxPoint x="260" y="200" as="sourcePoint" />
            <mxPoint x="310" y="150" as="targetPoint" />
          </mxGeometry>
        </mxCell>
        <mxCell id="gBi_saGejd_bIvLe54uf-134" value="" style="endArrow=none;html=1;rounded=0;" edge="1" parent="1">
          <mxGeometry width="50" height="50" relative="1" as="geometry">
            <mxPoint x="270" y="130" as="sourcePoint" />
            <mxPoint x="280" y="120" as="targetPoint" />
          </mxGeometry>
        </mxCell>
        <mxCell id="gBi_saGejd_bIvLe54uf-135" value="MUX&lt;div&gt;&lt;br&gt;&lt;/div&gt;&lt;div&gt;&lt;br&gt;&lt;/div&gt;&lt;div&gt;24&lt;/div&gt;" style="text;html=1;align=center;verticalAlign=middle;whiteSpace=wrap;rounded=0;" vertex="1" parent="1">
          <mxGeometry x="250" y="110" width="60" height="30" as="geometry" />
        </mxCell>
        <mxCell id="gBi_saGejd_bIvLe54uf-136" value="" style="endArrow=none;html=1;rounded=0;" edge="1" parent="1">
          <mxGeometry width="50" height="50" relative="1" as="geometry">
            <mxPoint x="430" y="85" as="sourcePoint" />
            <mxPoint x="440" y="75" as="targetPoint" />
          </mxGeometry>
        </mxCell>
        <mxCell id="gBi_saGejd_bIvLe54uf-137" value="" style="endArrow=none;html=1;rounded=0;entryDx=0;entryDy=0;" edge="1" parent="1" target="gBi_saGejd_bIvLe54uf-100">
          <mxGeometry width="50" height="50" relative="1" as="geometry">
            <mxPoint x="510" y="104.67" as="sourcePoint" />
            <mxPoint x="540" y="104.67" as="targetPoint" />
          </mxGeometry>
        </mxCell>
        <mxCell id="gBi_saGejd_bIvLe54uf-100" value="" style="shape=waypoint;sketch=0;fillStyle=solid;size=6;pointerEvents=1;points=[];fillColor=none;resizable=0;rotatable=0;perimeter=centerPerimeter;snapToPoint=1;" vertex="1" parent="1">
          <mxGeometry x="500" y="95" width="20" height="20" as="geometry" />
        </mxCell>
        <mxCell id="gBi_saGejd_bIvLe54uf-138" value="24" style="text;html=1;align=center;verticalAlign=middle;whiteSpace=wrap;rounded=0;" vertex="1" parent="1">
          <mxGeometry x="410" y="80" width="50" height="30" as="geometry" />
        </mxCell>
      </root>
    </mxGraphModel>
  </diagram>
</mxfile>
